<svg width="249" height="73" viewBox="0 0 249 73" fill="none" xmlns="http://www.w3.org/2000/svg">
<path d="M244.512 44.2896L242.509 44.6994V25.2183H248.799V48.8605H240.632L227.084 29.4108L229.055 29.001V48.8605H222.766V25.2183H231.151L244.512 44.2896Z" fill="#F9BB16"/>
<path d="M205.467 49.3648C202.693 49.3648 200.252 48.8499 198.145 47.8202C196.059 46.7904 194.432 45.3509 193.264 43.5015C192.117 41.6522 191.543 39.4981 191.543 37.0393C191.543 34.5805 192.117 32.4265 193.264 30.5771C194.432 28.7278 196.059 27.2882 198.145 26.2585C200.252 25.2287 202.693 24.7139 205.467 24.7139C208.262 24.7139 210.703 25.2287 212.789 26.2585C214.875 27.2882 216.502 28.7278 217.67 30.5771C218.838 32.4265 219.422 34.5805 219.422 37.0393C219.422 39.4981 218.838 41.6522 217.67 43.5015C216.502 45.3509 214.875 46.7904 212.789 47.8202C210.703 48.8499 208.262 49.3648 205.467 49.3648ZM205.467 43.5331C206.99 43.5331 208.304 43.2704 209.41 42.745C210.515 42.2196 211.36 41.4736 211.944 40.5069C212.549 39.5402 212.852 38.3843 212.852 37.0393C212.852 35.6944 212.549 34.5385 211.944 33.5718C211.36 32.6051 210.515 31.8591 209.41 31.3337C208.304 30.8083 206.99 30.5456 205.467 30.5456C203.965 30.5456 202.662 30.8083 201.556 31.3337C200.45 31.8591 199.595 32.6051 198.99 33.5718C198.385 34.5385 198.083 35.6944 198.083 37.0393C198.083 38.3843 198.385 39.5402 198.99 40.5069C199.595 41.4736 200.45 42.2196 201.556 42.745C202.662 43.2704 203.965 43.5331 205.467 43.5331Z" fill="#F9BB16"/>
<path d="M186.447 38.6155C186.385 40.0445 186.093 41.4105 185.571 42.7135C185.07 43.9954 184.33 45.1407 183.349 46.1495C182.39 47.1582 181.18 47.9463 179.72 48.5137C178.281 49.0811 176.601 49.3648 174.682 49.3648C172.847 49.3648 171.126 49.1021 169.519 48.5767C167.913 48.0303 166.495 47.2317 165.264 46.181C164.054 45.1302 163.105 43.8378 162.417 42.3037C161.749 40.7695 161.415 39.0148 161.415 37.0393C161.415 35.0639 161.759 33.3091 162.448 31.775C163.136 30.2409 164.096 28.9484 165.327 27.8977C166.578 26.8469 168.017 26.0588 169.645 25.5335C171.292 24.9871 173.086 24.7139 175.026 24.7139C177.613 24.7139 179.845 25.1132 181.722 25.9117C183.6 26.7103 185.112 27.8031 186.259 29.1901C187.407 30.5771 188.147 32.1848 188.481 34.0131H181.941C181.733 33.2146 181.305 32.5316 180.659 31.9641C180.033 31.3757 179.24 30.9344 178.28 30.6402C177.342 30.3249 176.268 30.1673 175.058 30.1673C173.597 30.1673 172.335 30.43 171.272 30.9554C170.208 31.4598 169.384 32.2268 168.8 33.2566C168.216 34.2653 167.924 35.5262 167.924 37.0393C167.924 38.5735 168.236 39.8659 168.862 40.9167C169.488 41.9674 170.375 42.7555 171.522 43.2809C172.69 43.8063 174.056 44.0689 175.621 44.0689C177.144 44.0689 178.489 43.8588 179.657 43.4385C180.825 42.9972 181.754 42.3562 182.442 41.5156C183.151 40.675 183.558 39.6662 183.662 38.4894L186.447 38.6155ZM176.247 41.2319V36.6295H188.7V48.8604H184.1L183.193 39.4981L184.413 41.2319H176.247Z" fill="#F9BB16"/>
<path d="M151.569 25.2183H158.046V48.8605H151.569V25.2183Z" fill="#F9BB16"/>
<path d="M134.151 25.2183V45.9604L131.241 43.0602H148.794V48.8605H127.674V25.2183H134.151Z" fill="#F9BB16"/>
<path d="M110.375 49.3648C107.601 49.3648 105.16 48.8499 103.054 47.8202C100.968 46.7904 99.3405 45.3509 98.1724 43.5015C97.0251 41.6522 96.4514 39.4981 96.4514 37.0393C96.4514 34.5805 97.0251 32.4265 98.1724 30.5771C99.3405 28.7278 100.968 27.2882 103.054 26.2585C105.16 25.2287 107.601 24.7139 110.375 24.7139C113.171 24.7139 115.611 25.2287 117.697 26.2585C119.783 27.2882 121.41 28.7278 122.578 30.5771C123.747 32.4265 124.331 34.5805 124.331 37.0393C124.331 39.4981 123.747 41.6522 122.578 43.5015C121.41 45.3509 119.783 46.7904 117.697 47.8202C115.611 48.8499 113.171 49.3648 110.375 49.3648ZM110.375 43.5331C111.898 43.5331 113.212 43.2704 114.318 42.745C115.423 42.2196 116.268 41.4736 116.852 40.5069C117.457 39.5402 117.76 38.3843 117.76 37.0393C117.76 35.6944 117.457 34.5385 116.852 33.5718C116.268 32.6051 115.423 31.8591 114.318 31.3337C113.212 30.8083 111.898 30.5456 110.375 30.5456C108.873 30.5456 107.57 30.8083 106.464 31.3337C105.359 31.8591 104.503 32.6051 103.898 33.5718C103.293 34.5385 102.991 35.6944 102.991 37.0393C102.991 38.3843 103.293 39.5402 103.898 40.5069C104.503 41.4736 105.359 42.2196 106.464 42.745C107.57 43.2704 108.873 43.5331 110.375 43.5331Z" fill="#F9BB16"/>
<path d="M85.173 25.2183C87.1338 25.2183 88.8235 25.5545 90.242 26.227C91.6813 26.8995 92.7764 27.8557 93.5274 29.0956C94.2784 30.3145 94.6538 31.7435 94.6538 33.3827C94.6538 35.0009 94.2784 36.4299 93.5274 37.6698C92.7764 38.8887 91.6813 39.8344 90.242 40.5069C88.8235 41.1794 87.1338 41.5156 85.173 41.5156H75.0038V36.2828H84.7662C85.8092 36.2828 86.6228 36.0306 87.2069 35.5263C87.7909 35.0009 88.083 34.2864 88.083 33.3827C88.083 32.458 87.7909 31.7435 87.2069 31.2391C86.6228 30.7138 85.8092 30.4511 84.7662 30.4511H75.567L78.477 27.4249V48.8605H72V25.2183H85.173Z" fill="#F9BB16"/>
<path d="M45.24 16.9434H57.4952V23.3793H47.7171C47.7171 23.3793 47.3912 21.6718 46.9349 20.2927C46.4785 18.9135 45.24 16.9434 45.24 16.9434Z" fill="#F9BB16"/>
<path fill-rule="evenodd" clip-rule="evenodd" d="M57.3646 53.9828H6.64899V16.9434C5.20891 16.9434 4.0415 18.1195 4.0415 19.5703V56.6097H59.9721V19.5703C59.9721 18.1195 58.8046 16.9434 57.3646 16.9434V53.9828Z" fill="#F9BB16"/>
<path d="M46.4135 25.8767L43.9975 38.2596H33.0532L30.8989 25.8767C30.8989 19.6215 36.1939 12.3866 37.716 11.2427C37.9484 11.0637 38.2328 10.9667 38.5253 10.9667C38.8178 10.9667 39.1023 11.0637 39.3347 11.2427C40.8567 12.3866 46.4135 19.6214 46.4135 25.8767Z" fill="#F9BB16"/>
<path d="M48.306 26.0005L54.5553 34.3135C54.7487 34.6201 54.8139 34.9912 54.7369 35.346L53.1564 43.0573C53.1059 43.3013 52.9905 43.5269 52.8227 43.71C52.6548 43.8932 52.4408 44.027 52.2033 44.0971C51.9659 44.1673 51.714 44.1712 51.4746 44.1085C51.2351 44.0457 51.017 43.9187 50.8436 43.7409L45.7194 38.5024" fill="#F9BB16"/>
<path d="M48.306 26.0005L54.5553 34.3135C54.7487 34.6201 54.8139 34.9912 54.7369 35.346L53.1564 43.0573C53.1059 43.3013 52.9905 43.5269 52.8227 43.71C52.6548 43.8932 52.4408 44.027 52.2033 44.0971C51.9659 44.1673 51.714 44.1712 51.4746 44.1085C51.2351 44.0457 51.017 43.9187 50.8436 43.7409L45.7194 38.5024" fill="#F9BB16"/>
<path d="M28.9831 25.9742L22.505 34.0789C22.3004 34.3779 22.2213 34.7463 22.2851 35.1038L23.5769 42.8693C23.6183 43.1151 23.7252 43.3449 23.8861 43.5343C24.047 43.7236 24.2559 43.8654 24.4906 43.9445C24.7252 44.0237 24.9768 44.0371 25.2184 43.9835C25.46 43.9298 25.6827 43.8111 25.8626 43.64L31.1786 38.5991" fill="#F9BB16"/>
<path d="M28.9831 25.9742L22.505 34.0789C22.3004 34.3779 22.2213 34.7463 22.2851 35.1038L23.5769 42.8693C23.6183 43.1151 23.7252 43.3449 23.8861 43.5343C24.047 43.7236 24.2559 43.8654 24.4906 43.9445C24.7252 44.0237 24.9768 44.0371 25.2184 43.9835C25.46 43.9298 25.6827 43.8111 25.8626 43.64L31.1786 38.5991" fill="#F9BB16"/>
<path d="M40.9426 39.9345C43.2745 44.6644 38.59 49.3839 38.59 49.3839C38.59 49.3839 33.9054 44.6644 36.2373 39.9345" fill="#F9BB16"/>
<path fill-rule="evenodd" clip-rule="evenodd" d="M34.6992 23.3495H34.7005V28.1074L38.7307 28.1074L38.7307 26.2748H39.3231C39.9813 26.2748 40.6073 26.1636 41.167 25.8983C41.7247 25.6367 42.1896 25.246 42.5138 24.7164C42.8343 24.1929 42.9777 23.6042 42.9777 22.988C42.9777 22.3707 42.8362 21.7792 42.5117 21.2563C42.1877 20.7284 41.7236 20.3389 41.1671 20.0778C40.6275 19.822 40.0264 19.7095 39.3942 19.7017H36.458L36.458 19.7012L34.7005 19.7012V22.9526L34.6992 22.954L34.6992 23.3495ZM39.3231 20.752C39.8682 20.752 40.3355 20.8445 40.7249 21.0294C41.1198 21.2143 41.4202 21.4749 41.626 21.8112C41.8318 22.1418 41.9347 22.5341 41.9347 22.988C41.9347 23.4364 41.8318 23.8286 41.626 24.1649C41.4202 24.5011 41.1198 24.7617 40.7249 24.9467C40.3355 25.1316 39.8682 25.2241 39.3231 25.2241H37.6877L37.6877 27.0566H35.7435L35.7435 20.752L39.3231 20.752ZM37.6877 23.6773H39.1979C39.4427 23.6773 39.6318 23.6157 39.7653 23.4924C39.9044 23.3691 39.9739 23.201 39.9739 22.988C39.9739 22.7639 39.9044 22.5929 39.7653 22.4753C39.6318 22.3576 39.4427 22.2987 39.1979 22.2987L37.6877 22.2987L37.6877 23.6773Z" fill="#272934"/>
<path fill-rule="evenodd" clip-rule="evenodd" d="M32.007 16.9434H6.64917V23.3793H29.6602C29.6602 23.3793 29.8558 22.6569 30.3121 20.8837C30.7684 19.1106 32.007 16.9434 32.007 16.9434ZM8.60478 19.7016C7.88475 19.7016 7.30104 20.2897 7.30104 21.0151C7.30104 21.7405 7.88475 22.3285 8.60478 22.3285C9.32482 22.3285 9.90853 21.7405 9.90853 21.0151C9.90853 20.2897 9.32482 19.7016 8.60478 19.7016ZM11.9945 21.0151C11.9945 20.2897 12.5782 19.7016 13.2983 19.7016C14.0183 19.7016 14.602 20.2897 14.602 21.0151C14.602 21.7405 14.0183 22.3285 13.2983 22.3285C12.5782 22.3285 11.9945 21.7405 11.9945 21.0151ZM17.9917 19.7016C17.2717 19.7016 16.688 20.2897 16.688 21.0151C16.688 21.7405 17.2717 22.3285 17.9917 22.3285C18.7118 22.3285 19.2955 21.7405 19.2955 21.0151C19.2955 20.2897 18.7118 19.7016 17.9917 19.7016Z" fill="#F9BB16"/>
</svg>
